<?xml version="1.0" encoding="UTF-8"?>
<svg version="1.1" xmlns="http://www.w3.org/2000/svg" width="48" height="48">
<path d="M0 0 C11.88 0 23.76 0 36 0 C36 9.24 36 18.48 36 28 C22.9375 28.0625 22.9375 28.0625 18.85913086 28.02758789 C10.98705102 28.17437744 10.98705102 28.17437744 4.75390625 32.55859375 C4.25318604 33.19982178 3.75246582 33.8410498 3.23657227 34.50170898 C2.82850342 34.99614502 2.42043457 35.49058105 2 36 C1.34 36 0.68 36 0 36 C0 24.12 0 12.24 0 0 Z " fill="#673AB7" transform="translate(6,6)"/>
<path d="M0 0 C1.98 0 3.96 0 6 0 C6.49940808 6.11774896 5.24900602 9.02495953 2 14 C1.34 14 0.68 14 0 14 C0.66 11.36 1.32 8.72 2 6 C1.34 6 0.68 6 0 6 C0 4.02 0 2.04 0 0 Z " fill="#CDBFE7" transform="translate(27,13)"/>
<path d="M0 0 C1.98 0 3.96 0 6 0 C6.49940808 6.11774896 5.24900602 9.02495953 2 14 C1.34 14 0.68 14 0 14 C0.66 11.36 1.32 8.72 2 6 C1.34 6 0.68 6 0 6 C0 4.02 0 2.04 0 0 Z " fill="#CDBFE7" transform="translate(17,13)"/>
</svg>
